<?xml version="1.0" encoding="utf-8"?>
<!-- Generator: Adobe Illustrator 21.1.0, SVG Export Plug-In . SVG Version: 6.00 Build 0)  -->
<svg version="1.1" id="Layer_1" xmlns="http://www.w3.org/2000/svg" xmlns:xlink="http://www.w3.org/1999/xlink" x="0px" y="0px"
	 width="40px" height="40px" viewBox="0 0 40 40" style="enable-background:new 0 0 40 40;" xml:space="preserve">
<g>
	<path d="M20,40c-0.3,0-0.6-0.112-0.837-0.325C18.587,39.15,5,26.663,5,15C5,6.725,11.725,0,20,0s15,6.725,15,15
		c0,7.262-5.212,15.725-10.363,20.887c-0.487,0.488-1.275,0.488-1.762,0c-0.487-0.487-0.487-1.275,0-1.762
		C27.5,29.475,32.5,21.512,32.5,15c0-6.888-5.612-12.5-12.5-12.5S7.5,8.112,7.5,15c0,10.562,13.212,22.7,13.337,22.825
		c0.513,0.463,0.55,1.25,0.087,1.763C20.675,39.862,20.338,40,20,40z"/>
	<path d="M20,22.5c-4.137,0-7.5-3.363-7.5-7.5s3.363-7.5,7.5-7.5s7.5,3.363,7.5,7.5S24.137,22.5,20,22.5z M20,10
		c-2.763,0-5,2.238-5,5s2.237,5,5,5s5-2.237,5-5S22.762,10,20,10z"/>
	<path d="M33.75,40H6.25C5.562,40,5,39.438,5,38.75s0.562-1.25,1.25-1.25h27.5c0.688,0,1.25,0.562,1.25,1.25S34.438,40,33.75,40z"/>
</g>
</svg>
