<svg xmlns="http://www.w3.org/2000/svg" width="40" height="40" viewBox="0 0 40 40"><path d="M20 40c-.3 0-.6-.112-.837-.325C18.587 39.15 5 26.663 5 15 5 6.725 11.725 0 20 0s15 6.725 15 15c0 7.262-5.212 15.725-10.363 20.887a1.245 1.245 0 1 1-1.762-1.762C27.5 29.475 32.5 21.512 32.5 15c0-6.888-5.612-12.5-12.5-12.5S7.5 8.112 7.5 15c0 10.562 13.212 22.7 13.337 22.825.513.463.55 1.25.087 1.763A1.244 1.244 0 0 1 20 40z"/><path d="M20 22.5c-4.137 0-7.5-3.363-7.5-7.5s3.363-7.5 7.5-7.5 7.5 3.363 7.5 7.5-3.363 7.5-7.5 7.5zM20 10c-2.763 0-5 2.238-5 5s2.237 5 5 5 5-2.237 5-5-2.238-5-5-5zm13.75 30H6.25C5.562 40 5 39.438 5 38.75s.562-1.25 1.25-1.25h27.5c.688 0 1.25.562 1.25 1.25S34.438 40 33.75 40z"/></svg>