<svg xmlns="http://www.w3.org/2000/svg" viewBox="-2830 2416 211.489 50"><defs><style>.a{fill:#e2a300}.b{fill:#ff525b}.c{fill:#fff}.d{fill:#353535}</style></defs><path class="a" d="M-2814.081 2466c-.466-1.232-.9-2.362-1.322-3.493l-4.666-12.4c-.924-2.456-1.854-4.909-2.765-7.37a1.311 1.311 0 0 0-.686-.782 4.3 4.3 0 0 1-2.336-2.971c-.036-.151-.043-.308-.073-.529a1.916 1.916 0 0 1 .468.029 4.514 4.514 0 0 1 .845.358 15.263 15.263 0 0 0 5.715 1.958c1.267.188 2.554.246 3.832.354a25.943 25.943 0 0 0 10.279-1.585 54.924 54.924 0 0 0 6.381-2.6.411.411 0 0 1 .332-.046c-1.033.653-2.05 1.334-3.1 1.949-.906.528-1.852.989-2.791 1.457a1.267 1.267 0 0 0-.663.738q-3.561 9.448-7.138 18.89-1.056 2.793-2.116 5.584c-.046.118-.099.231-.196.459zm.061-7.681c.106-.251.192-.424.255-.606q1.617-4.7 3.228-9.4.951-2.773 1.89-5.552a4.777 4.777 0 0 0 .123-.592.854.854 0 0 0-.187-.026c-.141.029-.282.06-.421.1a28.942 28.942 0 0 1-7.623.978c-.759 0-1.517-.09-2.276-.133a3.365 3.365 0 0 0-.4.026c.079.657 5.086 14.794 5.411 15.205z"/><path class="b" d="M-2807.345 2426.925l-.767-.625c.129-.349.247-.65.353-.955a5.77 5.77 0 0 0 .368-2.717 4.469 4.469 0 0 0-2.459-3.379 9.325 9.325 0 0 0-2.646-.95 14.231 14.231 0 0 0-3.768-.379 8.03 8.03 0 0 0-3.874 1.1 6.128 6.128 0 0 0-2.163 2.242 3.494 3.494 0 0 0 .1 3.669 7.751 7.751 0 0 0 2.911 2.784c.141.081.284.158.424.24.03.017.049.052.116.127l-.676 1.193a8.074 8.074 0 0 0-5.932-.463l-.486-1.261c.866-.454 1.815-.226 2.724-.49-.087-.165-.144-.291-.216-.408-.153-.246-.322-.482-.469-.731a5.5 5.5 0 0 1 1.2-7.3 10.248 10.248 0 0 1 5.304-2.469 11.9 11.9 0 0 1 7.461 1.3 9.148 9.148 0 0 1 2.7 2.073 4.888 4.888 0 0 1 1.039 5.145 6.837 6.837 0 0 1-1.244 2.254z"/><path class="b" d="M-2818.626 2429.7l.678-1.185c.076-.011.118-.032.145-.019a8.582 8.582 0 0 1 2.828 1.977 3.668 3.668 0 0 1 .648 4.005 5.527 5.527 0 0 1-3.4 3.305 11.4 11.4 0 0 1-5.333.706 22.232 22.232 0 0 1-2.413-.354 5.717 5.717 0 0 1-3.545-2.135 4.984 4.984 0 0 1-.883-1.787 2.989 2.989 0 0 1 .7-2.83 5.146 5.146 0 0 1 1.807-1.276 8.059 8.059 0 0 1 4-.808 7.2 7.2 0 0 1 4.424 1.976.888.888 0 0 1 .106.189l-.684.583c-.134-.094-.24-.16-.336-.238a5.5 5.5 0 0 0-4.287-1.143 9.054 9.054 0 0 0-2.042.524 2.693 2.693 0 0 0-1.783 2.03 2.387 2.387 0 0 0 .323 1.77 3.734 3.734 0 0 0 1.883 1.574 8.178 8.178 0 0 0 3.789.536 10.75 10.75 0 0 0 3.234-.647 6.678 6.678 0 0 0 1.479-.786 2.791 2.791 0 0 0 .666-4.106 5.931 5.931 0 0 0-1.5-1.484c-.149-.104-.29-.214-.504-.377zm14.403 9.267l-.333-1.444c.223-.087.409-.146.581-.231.55-.272 1.114-.523 1.636-.844a3.487 3.487 0 0 0 .836-.764 2.231 2.231 0 0 0 .353-2.441 6.394 6.394 0 0 0-2.734-3 7.042 7.042 0 0 0-6.165-.574 3.885 3.885 0 0 0-1.547.979 1.789 1.789 0 0 0-.411 2 3.881 3.881 0 0 0 1.712 1.97 5.847 5.847 0 0 0 4.083.7c.46-.075.912-.2 1.407-.316l.428.766a2.328 2.328 0 0 1-.324.247 6.207 6.207 0 0 1-3.556.74 6.133 6.133 0 0 1-4.085-2.136 4.524 4.524 0 0 1-1.21-3.06 3.21 3.21 0 0 1 1.3-2.625 6.125 6.125 0 0 1 3.251-1.254 9.683 9.683 0 0 1 7.677 2.461 5.786 5.786 0 0 1 1.979 3.466 3.913 3.913 0 0 1-.587 2.855 6.255 6.255 0 0 1-4.291 2.505z"/><path class="c" d="M-2734.459 2437.434h-1.278c.105-.543.2-1.029.3-1.559h1.32l1.225-5.558 5.909-.805c-.457 2.138-.9 4.195-1.355 6.339h2.407l-.319 1.591h-2.371c-.051.154-.1.27-.127.391q-1.276 5.973-2.539 11.949a5.53 5.53 0 0 0-.084 1.349 1.108 1.108 0 0 0 1.04 1.128 2.959 2.959 0 0 0 2.642-.833 5.518 5.518 0 0 0 1.661-2.934c.852-3.945 1.678-7.9 2.515-11.843.056-.263.121-.523.184-.8h5.734l-.48 2.412.455-.327c.708-.5 1.4-1.034 2.131-1.494a4.194 4.194 0 0 1 2.118-.609 2.634 2.634 0 0 1 2.805 2.073 3.264 3.264 0 0 1-.041 1.927 2.73 2.73 0 0 1-2.955 1.887 1.3 1.3 0 0 1-1.215-1c-.088-.294-.137-.6-.214-.9-.173-.67-.412-.827-1.1-.72a3.3 3.3 0 0 0-1.485.631c-.145.108-.279.232-.428.334a1.9 1.9 0 0 0-.781 1.292c-.96 4.662-1.95 9.317-2.933 13.974-.037.175-.088.348-.14.551h-5.69c.031-.745.317-1.437.387-2.265-.214.195-.358.324-.5.455a7.419 7.419 0 0 1-5.487 2.077 3.825 3.825 0 0 1-3.8-2.981l-.138-.477c-.144.168-.249.281-.343.4a7.781 7.781 0 0 1-3.436 2.654 6.689 6.689 0 0 1-3.1.374 3.549 3.549 0 0 1-3.136-2.931c-.049-.223-.1-.446-.162-.758-.156.21-.263.347-.362.49a8.934 8.934 0 0 1-1.743 1.928 5.84 5.84 0 0 1-4.9 1.218 3.637 3.637 0 0 1-2.946-2.655 7.09 7.09 0 0 1-.159-3.547c.421-2.2.892-4.4 1.351-6.594.5-2.374 1-4.745 1.509-7.117.018-.086.042-.171.07-.284h5.693a4.274 4.274 0 0 1-.047.474c-.909 4.3-1.826 8.6-2.724 12.908a9.889 9.889 0 0 0-.164 1.614 1.924 1.924 0 0 0 .15.738 1.028 1.028 0 0 0 1 .7 2.366 2.366 0 0 0 1.838-.793 6.059 6.059 0 0 0 1.5-2.969c.77-3.555 1.513-7.116 2.269-10.674.142-.669.292-1.335.44-2.01h5.738c-.166.807-.322 1.582-.486 2.354-.808 3.806-1.623 7.611-2.419 11.419a5.935 5.935 0 0 0-.12 1.4 1.173 1.173 0 0 0 1.174 1.251 2.587 2.587 0 0 0 2.464-.96 6.26 6.26 0 0 0 1.336-2.759c.771-3.536 1.52-7.077 2.276-10.617.024-.143.037-.287.066-.509zm-32.149 18.466q-1.693-10.372-3.377-20.711h-.143l-4.407 20.7h-5.756c1.927-9.067 3.847-18.1 5.782-27.212a3.172 3.172 0 0 0-.4.119 8.6 8.6 0 0 0-5.143 7.263 13.438 13.438 0 0 0 0 2.489 9.331 9.331 0 0 0 .391 1.552 4.55 4.55 0 0 1-3.1-.864 3.285 3.285 0 0 1-1.062-2.419 7.652 7.652 0 0 1 .6-3.666 11.324 11.324 0 0 1 9.622-7.27 22.4 22.4 0 0 1 3.413.065 5.635 5.635 0 0 1 .743.153c.538.1.74.4.817.955.423 3.029.9 6.052 1.348 9.077q.625 4.188 1.245 8.378c.144.966.293 1.93.493 2.9.461-1.75.771-3.529 1.14-5.3.377-1.807.733-3.618 1.1-5.428l1.084-5.375 1.087-5.378h5.756l-6.385 29.972zm64.185-20.031c-.181.868-.344 1.664-.513 2.458-.8 3.788-1.616 7.575-2.407 11.367a5.193 5.193 0 0 0-.1 1.4 1.116 1.116 0 0 0 1.175 1.174c.535.039 1.077-.021 1.663-.038a.431.431 0 0 1 .029.169 4.084 4.084 0 0 1-3.871 3.734 6.093 6.093 0 0 1-1.829-.14 3.787 3.787 0 0 1-2.846-3.283 9.4 9.4 0 0 1 .158-3.721q1.328-6.351 2.683-12.695c.029-.139.081-.273.128-.425zm1.4-5.397a3.177 3.177 0 1 1-3.164-3.2 3.175 3.175 0 0 1 3.164 3.2zm49.035 12.372l-3.337.905c-.092.621-.171 1.265-.283 1.9a15.991 15.991 0 0 1-1.959 5.491 10 10 0 0 1-2.98 3.262 7.939 7.939 0 0 1-7.417.875 4.941 4.941 0 0 1-3.273-4.187 13.338 13.338 0 0 1 .213-4.856 17.941 17.941 0 0 1 2.392-6.193 10.257 10.257 0 0 1 4.337-3.99 8.625 8.625 0 0 1 5.3-.707 4.053 4.053 0 0 1 3.091 2.472 7.821 7.821 0 0 1 .633 2.681c.026.36.042.721.066 1.146a5.182 5.182 0 0 0 .689.056 9.191 9.191 0 0 0 2.681-.643c.271-.1.329-.3.379-.536q.48-2.285.971-4.566c.026-.121.068-.238.107-.375h5.712l-.453 2.291.075.068c.131-.1.259-.211.4-.307.692-.492 1.367-1.013 2.087-1.461a4.214 4.214 0 0 1 2.117-.612 2.674 2.674 0 0 1 2.866 2.275 3.354 3.354 0 0 1-.09 1.718 2.745 2.745 0 0 1-3.059 1.879 1.212 1.212 0 0 1-1.071-.871c-.11-.344-.177-.7-.271-1.05-.167-.619-.389-.769-1.021-.686a3.274 3.274 0 0 0-1.54.634c-.131.1-.251.209-.386.3a2.007 2.007 0 0 0-.842 1.375c-.947 4.626-1.933 9.245-2.908 13.865-.041.194-.093.385-.148.612h-5.7c.025-.189.036-.377.075-.56q1.24-5.868 2.486-11.736c.022-.136.034-.277.061-.469zm-6.474-2.9c-.068-.438-.1-.855-.2-1.252a1.353 1.353 0 0 0-1.841-1.011 2.882 2.882 0 0 0-1.191.729 6.861 6.861 0 0 0-1.347 1.828 19.048 19.048 0 0 0-2.34 9.475 6.51 6.51 0 0 0 .2 1.335 1.473 1.473 0 0 0 1.407 1.148 2.44 2.44 0 0 0 2.064-.752 7.333 7.333 0 0 0 1.462-2.074 17.27 17.27 0 0 0 1.512-4.849c.039-.226.064-.454.093-.662a1.615 1.615 0 0 1-1.073-1.7 2.319 2.319 0 0 1 1.254-2.213zm-18.5-6.404a4.042 4.042 0 0 0 1.624-2.409 4.637 4.637 0 0 0 .12-1.5 2.34 2.34 0 0 0-2.057-2.2 4.742 4.742 0 0 0-2.364.122 3.246 3.246 0 0 0-2.278 3 5.4 5.4 0 0 0 1.309 4.024 25.948 25.948 0 0 0 1.93 1.981c.9.863 1.862 1.668 2.746 2.55a9.873 9.873 0 0 1 2.762 4.721 10.717 10.717 0 0 1-.3 6.254 8.716 8.716 0 0 1-4.277 4.863 13.5 13.5 0 0 1-10.014 1.061 6.4 6.4 0 0 1-.669-.223 6.189 6.189 0 0 1-4.25-6.176 6.973 6.973 0 0 1 1.255-4.194 5.687 5.687 0 0 1 5.94-2.239 2.685 2.685 0 0 1 2.092 1.778 2.011 2.011 0 0 1 .083.369 1.442 1.442 0 0 1-.013.267 9.927 9.927 0 0 0-1.248.173 7.342 7.342 0 0 0-1.527.538 3.512 3.512 0 0 0-1.764 4.152 3.588 3.588 0 0 0 3.295 2.841 4.46 4.46 0 0 0 4.6-2.5 6.249 6.249 0 0 0 .577-2.3 8.378 8.378 0 0 0-1.806-5.781c-.922-1.2-1.977-2.308-2.968-3.46-.637-.741-1.3-1.465-1.894-2.237a7.246 7.246 0 0 1-1.47-3.115 6.094 6.094 0 0 1 1.69-5.588 8.553 8.553 0 0 1 3.733-2.237 11.794 11.794 0 0 1 6.69-.188 6.509 6.509 0 0 1 1.3.524 3.883 3.883 0 0 1 2.128 2.853 5.406 5.406 0 0 1-.258 3.043 3.058 3.058 0 0 1-3.122 2.06 2.171 2.171 0 0 1-1.595-.827zm41.723 2.06h5.7c-.017.143-.022.264-.047.382l-2.8 13.279a8.257 8.257 0 0 0-.177 1.559 1.1 1.1 0 0 0 1.081 1.193 2.924 2.924 0 0 0 2.045-.575 6.157 6.157 0 0 0 1.81-1.928 24.774 24.774 0 0 0 1.509-2.818 22.217 22.217 0 0 0 1.882-7.6c.007-.123 0-.246 0-.376-.379.077-.724.162-1.074.215a1.157 1.157 0 0 1-1.236-.6 2.544 2.544 0 0 1-.25-2.241 1.839 1.839 0 0 1 1.223-1.148 3.225 3.225 0 0 1 1.664-.1 2.106 2.106 0 0 1 1.56 1.305 5.041 5.041 0 0 1 .389 2.23 26.384 26.384 0 0 1-2.141 10.011 14.814 14.814 0 0 1-3.51 5.177 8.3 8.3 0 0 1-6.4 2.3 6.324 6.324 0 0 1-1.176-.19 3.993 3.993 0 0 1-3.12-3.724 10.6 10.6 0 0 1 .252-3.181q1.344-6.291 2.677-12.584c.04-.186.089-.381.139-.586z"/><path class="d" d="M-2621.927 2434.754a1.694 1.694 0 0 1 .227-.852 1.665 1.665 0 0 1 .625-.627 1.713 1.713 0 0 1 1.708 0 1.665 1.665 0 0 1 .627.625 1.685 1.685 0 0 1 .229.856 1.7 1.7 0 0 1-.22.841 1.711 1.711 0 0 1-2.975 0 1.7 1.7 0 0 1-.221-.843zm.211 0a1.46 1.46 0 0 0 .2.749 1.5 1.5 0 0 0 .546.546 1.495 1.495 0 0 0 1.5 0 1.5 1.5 0 0 0 .546-.546 1.455 1.455 0 0 0 .2-.75 1.477 1.477 0 0 0-.194-.738 1.5 1.5 0 0 0-.543-.552 1.486 1.486 0 0 0-1.506-.008 1.51 1.51 0 0 0-.751 1.3zm2.106-.424a.563.563 0 0 1-.338.532l.538.893h-.275l-.477-.818h-.382v.818h-.229v-2h.479a.8.8 0 0 1 .5.141.512.512 0 0 1 .184.434zm-.934.424h.255a.468.468 0 0 0 .325-.106.39.39 0 0 0 .118-.308c0-.26-.149-.391-.448-.391h-.25z"/></svg>