<?xml version="1.0" encoding="utf-8"?>
<!-- Generator: Adobe Illustrator 21.1.0, SVG Export Plug-In . SVG Version: 6.00 Build 0)  -->
<svg version="1.1" id="Layer_1" xmlns="http://www.w3.org/2000/svg" xmlns:xlink="http://www.w3.org/1999/xlink" x="0px" y="0px"
	 width="40px" height="40px" viewBox="0 0 40 40" style="enable-background:new 0 0 40 40;" xml:space="preserve">
<g>
	<path d="M0,27.72c0,0.531,0.434,0.965,0.965,0.965h17.37c0.531,0,0.965-0.434,0.965-0.965s-0.434-0.965-0.965-0.965H1.93V6.441
		l14.331,12.931c0.193,0.145,0.434,0.241,0.627,0.241c0.193,0,0.483-0.097,0.627-0.241L31.846,6.441v9.698
		c0,0.531,0.434,0.965,0.965,0.965c0.531,0,0.965-0.434,0.965-0.965V3.595c0-0.531-0.434-0.965-0.965-0.965H0.965
		C0.434,2.63,0,3.064,0,3.595V27.72z M16.888,17.346L2.702,4.56h28.372L16.888,17.346z"/>
	<path d="M30.832,19.035c-5.066,0-9.168,4.101-9.168,9.168s4.101,9.168,9.168,9.168S40,33.269,40,28.203
		S35.899,19.035,30.832,19.035z M30.832,35.44c-4.005,0-7.238-3.233-7.238-7.238s3.233-7.238,7.238-7.238s7.238,3.233,7.238,7.238
		S34.789,35.44,30.832,35.44z"/>
	<path d="M33.776,25.79l-3.715,3.715l-1.448-1.448c-0.386-0.386-0.965-0.386-1.351,0s-0.386,0.965,0,1.351l2.171,2.171
		c0.193,0.193,0.434,0.29,0.676,0.29s0.483-0.097,0.676-0.29l4.439-4.439c0.386-0.386,0.386-0.965,0-1.351
		C34.837,25.404,34.162,25.452,33.776,25.79z"/>
</g>
</svg>
