<svg xmlns="http://www.w3.org/2000/svg" width="40" height="40" viewBox="0 0 40 40"><path d="M0 27.72c0 .531.434.965.965.965h17.37c.531 0 .965-.434.965-.965s-.434-.965-.965-.965H1.93V6.441l14.331 12.931c.193.145.434.241.627.241s.483-.097.627-.241L31.846 6.441v9.698c0 .531.434.965.965.965a.968.968 0 0 0 .965-.965V3.595a.968.968 0 0 0-.965-.965H.965A.968.968 0 0 0 0 3.595V27.72zm16.888-10.374L2.702 4.56h28.372L16.888 17.346z"/><path d="M30.832 19.035c-5.066 0-9.168 4.101-9.168 9.168s4.101 9.168 9.168 9.168S40 33.269 40 28.203s-4.101-9.168-9.168-9.168zm0 16.405c-4.005 0-7.238-3.233-7.238-7.238s3.233-7.238 7.238-7.238 7.238 3.233 7.238 7.238-3.281 7.238-7.238 7.238z"/><path d="M33.776 25.79l-3.715 3.715-1.448-1.448c-.386-.386-.965-.386-1.351 0s-.386.965 0 1.351l2.171 2.171c.193.193.434.29.676.29s.483-.097.676-.29l4.439-4.439a.933.933 0 0 0 0-1.351c-.387-.385-1.062-.337-1.448.001z"/></svg>