<?xml version="1.0" encoding="utf-8"?>
<!-- Generator: Adobe Illustrator 21.1.0, SVG Export Plug-In . SVG Version: 6.00 Build 0)  -->
<svg version="1.1" id="Layer_1" xmlns:sketch="http://www.bohemiancoding.com/sketch/ns"
	 xmlns="http://www.w3.org/2000/svg" xmlns:xlink="http://www.w3.org/1999/xlink" x="0px" y="0px" width="40px" height="40px"
	 viewBox="0 0 40 40" style="enable-background:new 0 0 40 40;" xml:space="preserve">
<title>telephone</title>
<description>Created with Sketch (http://www.bohemiancoding.com/sketch)</description>
<path sketch:type="MSShapeGroup" d="M2.188,6.875c0,0-2.41,0-2.171,13.594s2.178,13.594,2.178,13.594H3.75v-1.25H3.125
	c0,0-1.562,0-1.562-12.344c0-12.344,1.562-12.031,1.562-12.031H3.75V6.875H2.188z M37.806,6.875c0,0,1.939,0,2.178,13.594
	s-2.178,13.594-2.178,13.594H17.188V32.5h19.687c0,0,1.562,0,1.562-12.031S36.875,8.395,36.875,8.395H17.188v-1.52H37.806z
	 M33.438,30C34.3,30,35,29.3,35,28.437s-0.7-1.562-1.562-1.562c-0.863,0-1.562,0.7-1.562,1.562S32.575,30,33.438,30z M27.5,30
	c0.863,0,1.562-0.7,1.562-1.562s-0.7-1.562-1.562-1.562s-1.562,0.7-1.562,1.562S26.637,30,27.5,30z M21.563,30
	c0.863,0,1.562-0.7,1.562-1.562s-0.7-1.562-1.562-1.562c-0.863,0-1.562,0.7-1.562,1.562S20.7,30,21.563,30z M33.438,25
	C34.3,25,35,24.3,35,23.437s-0.7-1.562-1.562-1.562c-0.863,0-1.562,0.7-1.562,1.562S32.575,25,33.438,25z M27.5,25
	c0.863,0,1.562-0.7,1.562-1.562s-0.7-1.562-1.562-1.562s-1.562,0.7-1.562,1.562S26.637,25,27.5,25z M21.563,25
	c0.863,0,1.562-0.7,1.562-1.562s-0.7-1.562-1.562-1.562c-0.863,0-1.562,0.7-1.562,1.562S20.7,25,21.563,25z M33.438,20
	C34.3,20,35,19.3,35,18.438s-0.7-1.562-1.562-1.562c-0.863,0-1.562,0.7-1.562,1.562S32.575,20,33.438,20z M27.5,20
	c0.863,0,1.562-0.7,1.562-1.562s-0.7-1.562-1.562-1.562s-1.562,0.7-1.562,1.562S26.637,20,27.5,20z M21.563,20
	c0.863,0,1.562-0.7,1.562-1.562s-0.7-1.562-1.562-1.562c-0.863,0-1.562,0.7-1.562,1.562S20.7,20,21.563,20z M20.313,10.625
	c-0.173,0-0.313,0.14-0.313,0.312v3.438c0,0.172,0.139,0.312,0.313,0.312h14.373c0.173,0,0.313-0.14,0.313-0.312v-3.438
	c0-0.172-0.139-0.312-0.313-0.312H20.313z M21.563,12.188v0.937h11.875v-0.937H21.563z M8.143,4.375c0,0-2.831,0-2.831,2.528v26.193
	c0,2.528,2.831,2.528,2.831,2.528h4.651c0,0,2.831,0,2.831-2.528V6.903c0-2.528-2.831-2.528-2.831-2.528H8.143z M8.292,5.938
	c0,0-1.417,0-1.417,1.432v25.26c0,1.432,1.417,1.432,1.417,1.432h4.354c0,0,1.417,0,1.417-1.432V7.37
	c0-1.432-1.417-1.432-1.417-1.432H8.292z"/>
</svg>
