<svg xmlns="http://www.w3.org/2000/svg" width="40" height="40" viewBox="0 0 40 40"><title>telephone</title><path d="M2.188 6.875s-2.41 0-2.171 13.594 2.178 13.594 2.178 13.594H3.75v-1.25h-.625s-1.562 0-1.562-12.344S3.125 8.438 3.125 8.438h.625V6.875H2.188zm35.618 0s1.939 0 2.178 13.594-2.178 13.594-2.178 13.594H17.188V32.5h19.687s1.562 0 1.562-12.031-1.562-12.074-1.562-12.074H17.188v-1.52h20.618zM33.438 30a1.563 1.563 0 1 0-.002-3.126A1.563 1.563 0 0 0 33.438 30zM27.5 30a1.562 1.562 0 1 0 0-3.124 1.562 1.562 0 0 0 0 3.124zm-5.937 0a1.562 1.562 0 1 0 0-3.124 1.562 1.562 0 0 0 0 3.124zm11.875-5a1.563 1.563 0 1 0-.002-3.126A1.563 1.563 0 0 0 33.438 25zM27.5 25a1.562 1.562 0 1 0 0-3.124 1.562 1.562 0 0 0 0 3.124zm-5.937 0a1.562 1.562 0 1 0 0-3.124 1.562 1.562 0 0 0 0 3.124zm11.875-5a1.563 1.563 0 1 0-.002-3.126A1.563 1.563 0 0 0 33.438 20zM27.5 20a1.562 1.562 0 1 0 0-3.124 1.562 1.562 0 0 0 0 3.124zm-5.937 0a1.562 1.562 0 1 0 0-3.124 1.562 1.562 0 0 0 0 3.124zm-1.25-9.375a.313.313 0 0 0-.313.312v3.438c0 .172.139.312.313.312h14.373c.173 0 .313-.14.313-.312v-3.438a.312.312 0 0 0-.313-.312H20.313zm1.25 1.563v.937h11.875v-.937H21.563zM8.143 4.375s-2.831 0-2.831 2.528v26.193c0 2.528 2.831 2.528 2.831 2.528h4.651s2.831 0 2.831-2.528V6.903c0-2.528-2.831-2.528-2.831-2.528H8.143zm.149 1.563s-1.417 0-1.417 1.432v25.26c0 1.432 1.417 1.432 1.417 1.432h4.354s1.417 0 1.417-1.432V7.37c0-1.432-1.417-1.432-1.417-1.432H8.292z"/></svg>